<svg width="80" height="77" viewBox="0 0 80 77" fill="none" xmlns="http://www.w3.org/2000/svg">
<path d="M22.3984 31.3579L3.58374 55.5482H12.5431V75.2587L32.2537 49.2766H22.3984V31.3579Z" stroke="black" stroke-width="2" stroke-linejoin="round"/>
<path d="M40.3171 64.5075C40.3171 64.5075 73.4667 37.6294 77.0504 24.1904C80.6342 10.7513 71.6748 1.79203 60.0277 1.79199C48.3805 1.79195 40.3171 11.6473 40.3171 11.6473C40.3171 11.6473 34.0455 1.79203 20.6065 1.79199C7.16749 1.79195 -2.4959e-05 10.7513 3.58374 24.1904C4.4986 27.6211 7.34019 31.9276 11.0652 36.4391M40.3171 64.5075C40.3171 64.5075 36.7969 61.6533 31.9267 57.34L40.3171 64.5075Z" stroke="black" stroke-width="2" stroke-linecap="round" stroke-linejoin="round"/>
</svg>
