<svg width="190" height="98" viewBox="0 0 190 98" fill="none" xmlns="http://www.w3.org/2000/svg">
<path d="M188.056 37.0326L166.813 14.4127C166.167 13.7251 165.392 13.1712 164.532 12.7824C163.672 12.3936 162.744 12.1777 161.8 12.1469C160.856 12.1161 159.915 12.2711 159.032 12.603C158.148 12.9349 157.338 13.4372 156.649 14.0812L131.208 37.8514L87.6404 2.0453C86.0448 0.732847 84.0437 0.0103793 81.9756 0.00011098C79.9074 -0.0101573 77.8992 0.692405 76.2906 1.98894L2.68197 61.0978C1.19642 62.2912 0.24675 64.024 0.0417132 65.9155C-0.163323 67.8069 0.393053 69.7021 1.58854 71.1846L21.0808 95.326C21.673 96.0597 22.4042 96.6698 23.2328 97.1215C24.0614 97.5733 24.9711 97.8577 25.91 97.9587C26.8489 98.0596 27.7985 97.9751 28.7046 97.71C29.6107 97.4448 30.4556 97.0042 31.1909 96.4133L81.6614 55.8804L127.034 93.1648C128.718 94.5529 130.852 95.2804 133.036 95.2108C135.22 95.1412 137.303 94.2794 138.895 92.7869L187.727 47.1725C189.118 45.871 189.935 44.0718 189.996 42.1705C190.058 40.2691 189.36 38.4211 188.056 37.0326Z" fill="#3B845F"/>
</svg>
